# xmcd
#
# Track frame offsets:
#	150
#	16829
#	38463
#	53250
#	70759
#	91663
#	110875
#	132310
#	153025
#	173000
#	193017
#	209048
#
# Disc length: 3059 seconds
#
# Revision: 2
# Processed by: cddbd v1.4b41PL1 Copyright (c) Steve Scherf et al.
# Submitted via: EZCDDA 0.1
#
DISCID=910bf10c
DTITLE=Nawfel
DYEAR=1900
DGENRE=
TTITLE0=Big bird
TTITLE1=Why can't we live together
TTITLE2=Jokes on you
TTITLE3=May this be love
TTITLE4=Go back home
TTITLE5=Rock steady
TTITLE6=I want to take you higher
TTITLE7=Dream on
TTITLE8=Mas y mas
TTITLE9=Summer song
TTITLE10=I get lifted
TTITLE11=Hook me up
EXTD=
EXTT0=
EXTT1=
EXTT2=
EXTT3=
EXTT4=
EXTT5=
EXTT6=
EXTT7=
EXTT8=
EXTT9=
EXTT10=
EXTT11=
PLAYORDER=
